<?xml version="1.0" standalone="no"?>
<!DOCTYPE svg PUBLIC "-//W3C//DTD SVG 20010904//EN"
 "http://www.w3.org/TR/2001/REC-SVG-20010904/DTD/svg10.dtd">
<svg version="1.0" xmlns="http://www.w3.org/2000/svg"
 width="1002.000000pt" height="992.000000pt" viewBox="0 0 1002.000000 992.000000"
 preserveAspectRatio="xMidYMid meet">
<metadata>
Created by potrace 1.16, written by Peter Selinger 2001-2019
</metadata>
<g transform="translate(0.000000,992.000000) scale(0.100000,-0.100000)"
fill="#000000" stroke="none">
<path d="M5545 9754 c-11 -89 -8 -634 5 -741 12 -108 38 -294 46 -333 13 -63
25 -128 31 -163 3 -20 9 -40 14 -43 5 -3 9 -16 9 -29 0 -13 4 -34 9 -47 8 -21
17 -51 52 -183 11 -39 19 -60 38 -107 6 -13 17 -43 25 -68 13 -43 23 -69 52
-135 7 -16 20 -50 30 -75 18 -47 155 -318 191 -380 11 -19 37 -64 58 -100 37
-64 183 -280 195 -290 4 -3 25 -31 48 -62 178 -244 497 -558 787 -778 79 -60
349 -240 360 -240 4 0 19 -9 34 -20 31 -21 324 -170 416 -211 33 -15 105 -43
160 -63 55 -21 108 -41 117 -47 10 -5 25 -9 33 -9 8 0 23 -4 33 -9 21 -11 179
-58 277 -82 99 -25 192 -44 315 -65 278 -47 697 -71 894 -50 l78 8 -6 46 c-4
26 -11 79 -16 117 -11 83 -24 169 -46 285 -8 47 -17 99 -20 115 -3 17 -9 39
-14 50 -5 11 -11 34 -13 50 -9 55 -82 318 -98 347 -5 10 -9 26 -9 37 0 18 -11
19 -167 25 -202 6 -326 21 -518 61 -44 9 -95 19 -113 22 -18 3 -35 9 -38 14
-3 5 -16 9 -30 9 -13 0 -32 4 -42 9 -9 5 -57 22 -107 37 -49 15 -110 36 -135
47 -25 10 -54 23 -65 27 -122 49 -386 184 -393 202 -2 4 -8 8 -14 8 -11 0
-254 166 -278 190 -3 3 -27 23 -55 45 -134 106 -375 361 -503 530 -27 36 -142
205 -142 208 0 3 -19 38 -43 79 -53 90 -123 234 -169 348 -6 14 -13 32 -17 40
-4 8 -20 56 -35 105 -16 50 -32 98 -37 107 -5 10 -9 29 -9 42 0 14 -4 27 -9
30 -5 3 -11 20 -14 38 -3 18 -13 67 -21 108 -39 178 -54 322 -62 565 -4 125
-10 192 -18 197 -6 4 -36 15 -66 24 -30 8 -63 20 -72 25 -10 5 -27 9 -37 9
-11 0 -22 4 -25 9 -3 4 -20 11 -38 14 -18 4 -76 18 -128 32 -52 14 -115 30
-140 36 -25 6 -63 14 -85 19 -121 27 -381 70 -425 70 -26 0 -28 -3 -35 -56z"/>
<path d="M4150 9788 c-25 -5 -70 -14 -100 -19 -148 -28 -457 -104 -525 -129
-11 -4 -54 -18 -95 -31 -139 -42 -200 -70 -200 -89 0 -11 5 -22 10 -25 6 -3
10 -15 10 -26 0 -10 4 -27 9 -37 6 -9 22 -55 36 -102 15 -47 30 -94 35 -105 4
-11 13 -36 20 -55 7 -19 16 -44 20 -55 5 -11 20 -54 35 -95 34 -96 46 -126 79
-202 9 -21 23 -56 31 -78 8 -22 21 -55 28 -73 8 -17 21 -48 30 -67 50 -116 61
-141 86 -195 15 -33 80 -166 144 -295 109 -218 149 -296 222 -425 44 -78 63
-112 86 -152 11 -20 36 -61 55 -90 19 -29 34 -55 34 -58 0 -7 233 -366 298
-460 58 -84 136 -193 149 -210 4 -6 35 -46 68 -90 67 -90 236 -307 245 -315 3
-3 48 -57 100 -120 52 -63 101 -122 109 -130 9 -8 34 -35 55 -60 196 -226 550
-583 796 -805 36 -32 83 -74 105 -94 22 -20 67 -59 100 -86 33 -28 62 -52 65
-55 3 -3 28 -23 55 -45 28 -21 52 -42 55 -45 3 -3 28 -24 55 -45 28 -22 52
-42 55 -45 3 -3 23 -18 45 -35 22 -16 42 -32 45 -35 3 -3 43 -34 90 -68 47
-35 92 -68 100 -75 34 -28 447 -312 515 -354 11 -7 41 -25 67 -40 27 -16 48
-31 48 -35 0 -5 4 -8 10 -8 5 0 34 -15 63 -34 29 -19 69 -43 88 -54 19 -11 97
-55 174 -99 151 -86 268 -149 440 -236 121 -62 362 -177 370 -177 2 0 28 -11
57 -24 104 -47 144 -64 208 -91 36 -15 79 -33 95 -40 17 -7 86 -34 155 -60 69
-26 134 -50 145 -55 20 -9 184 -66 265 -93 58 -19 51 -31 140 238 55 166 56
167 85 285 14 58 30 121 35 140 27 108 58 273 62 334 l3 39 -75 27 c-78 28
-101 36 -135 50 -11 4 -114 44 -228 89 -115 45 -234 94 -265 108 -31 14 -73
32 -92 40 -64 29 -514 252 -580 288 -122 68 -207 116 -255 146 -16 11 -37 22
-45 26 -8 3 -34 19 -57 35 -23 15 -44 28 -48 28 -3 0 -72 44 -153 98 -81 53
-151 99 -157 101 -5 2 -12 7 -15 10 -3 4 -29 22 -58 40 -30 19 -59 39 -65 45
-7 7 -55 42 -107 78 -52 37 -131 96 -176 130 -44 35 -98 76 -120 93 -21 16
-41 32 -44 35 -3 3 -27 24 -55 45 -27 22 -52 42 -55 45 -3 3 -32 27 -65 55
-279 232 -719 664 -958 940 -14 17 -37 44 -52 60 -38 44 -323 400 -375 470
-128 170 -397 571 -468 695 -10 19 -41 71 -67 115 -94 156 -130 224 -255 475
-92 184 -134 271 -175 365 -9 22 -25 58 -35 80 -47 105 -60 135 -60 141 0 3
-7 22 -16 42 -9 21 -19 46 -24 57 -4 11 -12 31 -18 45 -18 43 -71 188 -87 237
-9 27 -19 55 -24 63 -4 8 -20 57 -36 108 l-29 92 -45 -1 c-25 -1 -66 -6 -91
-11z"/>
<path d="M7642 8994 c-16 -19 -36 -47 -43 -62 -8 -15 -16 -29 -20 -32 -8 -8
-50 -100 -69 -153 -9 -26 -20 -50 -23 -54 -4 -3 -7 -19 -7 -34 0 -15 -4 -31
-10 -34 -5 -3 -10 -28 -10 -55 0 -27 -5 -52 -11 -56 -18 -11 2 -347 22 -369 5
-5 9 -21 9 -35 0 -15 3 -30 7 -33 3 -4 14 -28 23 -54 57 -159 158 -304 290
-418 54 -46 136 -105 148 -105 6 0 12 -4 14 -8 7 -18 215 -102 253 -102 12 0
25 -4 30 -9 32 -30 428 -30 460 0 5 5 21 9 35 9 14 0 30 4 35 8 6 4 28 14 50
21 63 21 145 61 208 104 59 39 78 64 60 76 -6 3 -32 40 -59 81 -26 41 -56 84
-66 94 -10 11 -18 26 -18 33 0 7 -4 13 -8 13 -4 0 -15 12 -24 28 -9 15 -25 36
-35 47 -10 11 -31 38 -48 60 -46 62 -61 80 -195 235 -109 126 -379 392 -504
495 -27 22 -57 47 -66 55 -44 36 -57 47 -95 75 -22 16 -47 38 -56 47 -9 10
-19 18 -23 18 -6 0 -97 63 -127 88 -8 7 -34 24 -56 38 l-41 24 -30 -36z"/>
<path d="M1874 8767 c-189 -149 -640 -600 -705 -704 -12 -20 -9 -27 51 -90 36
-37 638 -645 1339 -1351 701 -705 1278 -1286 1281 -1291 4 -7 2217 -2234 3696
-3720 l502 -504 54 44 c228 187 539 501 695 702 l21 27 -236 238 c-131 130
-543 545 -917 922 -987 993 -3750 3775 -4520 4549 -363 366 -782 788 -931 938
-149 150 -275 273 -280 272 -5 0 -28 -15 -50 -32z"/>
<path d="M360 6677 c0 -1 -12 -34 -26 -72 -45 -124 -60 -170 -104 -330 -66
-237 -137 -586 -129 -630 3 -13 21 -25 59 -38 223 -77 264 -91 320 -115 14 -6
52 -20 85 -32 33 -12 74 -27 90 -35 17 -7 46 -19 65 -28 19 -8 64 -27 100 -42
36 -15 85 -36 110 -47 25 -11 65 -29 90 -40 152 -68 520 -256 680 -348 41 -23
84 -48 95 -54 75 -42 171 -102 173 -108 2 -5 8 -8 13 -8 10 0 249 -152 359
-228 247 -171 707 -529 800 -622 3 -3 25 -23 50 -44 216 -188 605 -576 761
-761 19 -22 36 -42 39 -45 3 -3 32 -36 65 -75 33 -38 63 -72 66 -75 9 -8 201
-249 254 -320 27 -36 62 -83 79 -104 99 -130 383 -559 466 -704 9 -15 34 -58
56 -97 23 -38 55 -95 71 -125 17 -30 40 -73 53 -95 30 -52 220 -431 220 -439
0 -3 18 -43 39 -88 22 -46 51 -112 66 -148 15 -36 34 -81 42 -100 8 -19 19
-44 23 -55 4 -11 15 -36 23 -55 9 -19 25 -62 37 -95 12 -33 25 -69 30 -80 16
-39 42 -111 72 -200 17 -49 36 -95 42 -102 12 -12 137 6 321 47 22 5 60 13 85
19 38 9 107 27 265 71 65 18 290 93 331 111 46 19 53 36 34 81 -5 13 -25 70
-45 128 -41 117 -101 284 -114 315 -5 11 -13 32 -20 48 -6 15 -15 37 -20 50
-12 31 -26 66 -45 109 -9 20 -16 39 -16 42 0 3 -11 30 -25 61 -14 30 -36 80
-50 110 -14 31 -25 57 -25 59 0 5 -92 202 -153 326 -55 112 -220 422 -282 530
-21 36 -46 80 -57 99 -11 19 -35 59 -54 88 -19 29 -34 58 -34 63 0 6 -4 10
-10 10 -5 0 -10 5 -10 10 0 29 -487 742 -540 790 -3 3 -28 34 -55 70 -60 80
-256 321 -306 375 -20 22 -92 103 -160 180 -225 254 -600 620 -924 901 -399
345 -1031 794 -1455 1031 -25 14 -49 29 -55 33 -5 4 -50 29 -100 55 -49 27
-108 59 -130 72 -49 28 -540 273 -548 273 -3 0 -34 13 -69 29 -111 51 -151 68
-243 106 -49 20 -103 43 -120 50 -16 7 -61 25 -100 40 -38 15 -79 31 -90 35
-192 77 -515 182 -515 167z"/>
<path d="M223 4387 l-143 -10 0 -27 c0 -15 4 -51 9 -81 5 -30 15 -85 21 -124
17 -104 39 -224 51 -275 9 -42 16 -66 40 -160 21 -85 53 -193 86 -296 l35
-111 191 -6 c299 -10 596 -59 832 -139 353 -118 631 -265 915 -482 135 -104
358 -321 472 -460 100 -122 254 -352 313 -466 21 -41 46 -88 55 -105 9 -16 38
-84 64 -150 27 -66 52 -129 57 -140 26 -61 65 -206 109 -400 32 -143 50 -312
55 -510 3 -118 7 -162 17 -167 56 -29 471 -137 648 -168 36 -6 74 -13 85 -16
79 -17 320 -43 328 -35 5 5 9 138 9 323 0 357 -14 509 -69 788 -9 41 -18 86
-20 100 -26 130 -136 488 -184 598 -11 23 -28 62 -39 87 -11 25 -20 47 -20 51
0 7 -128 263 -157 314 -141 247 -299 472 -482 685 -54 63 -381 386 -430 425
-24 19 -62 50 -85 69 -94 77 -229 174 -361 257 -184 117 -179 114 -335 193
-118 60 -172 85 -315 146 -27 12 -195 75 -255 95 -90 32 -335 96 -450 119
-211 42 -393 64 -655 81 -185 11 -184 11 -392 -3z"/>
<path d="M1395 2449 c-133 -24 -209 -46 -295 -85 -70 -32 -190 -107 -214 -132
-17 -19 -16 -22 20 -74 80 -114 239 -323 264 -348 3 -3 32 -36 65 -75 107
-125 369 -390 495 -501 201 -175 598 -463 620 -449 14 9 62 81 97 145 36 67
78 178 92 245 6 28 15 71 21 97 5 26 10 91 10 144 0 338 -163 654 -437 850
-74 53 -246 136 -317 153 -161 39 -310 50 -421 30z"/>
</g>
</svg>
