<svg id="Layer_1" data-name="Layer 1" xmlns="http://www.w3.org/2000/svg" width="665.79" height="722" viewBox="0 0 665.79 722"><defs><style>.cls-1{fill:#00d0b0;}</style></defs><title>researchgate-logo-freelogovectors.net_</title><g id="_00d0b0ff" data-name="#00d0b0ff"><path class="cls-1" d="M527.81,42c49.75-47.53,147.3-33.3,172.68,34q-18.72,8.16-37.66,15.65c-11.22-19.81-28.67-39.15-53.11-39.89-31.29-4.83-61.91,20.48-65.93,51.3-4.5,28.74-3.29,58.08-3,87.08.94,19.34,1.14,40,11.55,57.07,18.73,28,61.1,32.43,87.82,14,22.22-16.72,24.37-46.73,24.24-72.18-18.87-.27-37.67-.47-56.53-.34-.27-12.35-.34-24.7-.14-37.06,33.24-.2,66.47-.4,99.71.14.2,36.66,3.62,75.73-13.23,109.71-33.91,67.67-148.92,68.75-182.89.53-17.66-34.51-14.44-74.52-14.91-112C496.38,112.32,499.47,70,527.81,42Z" transform="translate(-42.11 -14)"/><path class="cls-1" d="M42.17,191.61c68.49,2.15,136.9-.34,205.32-1.68,48-.81,99.44,5.84,138.45,36.06,43.71,33.1,58.21,95.47,41.29,146.43-16.52,52-61.57,92.39-114,106.28,37.4,64.12,79.36,126,129.45,181,22.43,24.5,51.77,44.58,85.61,47.94-.41,7.72-.68,15.37-.94,23.09C471.88,745.66,408.7,728.47,372,683.49,321.88,623.39,281.33,556,242.66,488.1c-22.16-.06-44.25-.67-66.34-1.67.34,53.57-.87,107.15.67,160.73,1.35,16.18,3,36.12,18.2,45.59,19.27,8.06,40.69,8.19,61.1,11.48,0,6.25-.07,18.67-.07,24.91-71.3-2.95-142.68-3.29-214,.07-.07-8.33-.07-16.65-.13-24.91,17.65-4,37.19-4.3,52.64-14.57C109.52,675.43,109,652.87,110,633.8q.41-174.84-.07-349.6c-1-18.94-1.07-41.7-17.12-54.79-15.65-8.12-33.71-9.33-50.63-13V191.61m134.15,38.67c.4,72.25-.94,144.56.67,216.87,43.58,1.68,91,7.65,130.79-14.71C372.17,398.14,380.57,293,322,249.62,279.32,220.48,224.8,229.54,176.32,230.28Z" transform="translate(-42.11 -14)"/></g></svg>